<svg xmlns="http://www.w3.org/2000/svg" viewBox="0 0 256 320" fill="none"
     stroke="#f0a15c" stroke-width="13" stroke-linecap="round" stroke-linejoin="round">
  <path d="M64 300 L64 140 C64 70 96 48 128 48 C160 48 192 70 192 140 L192 300 L64 300"/>
  <path d="M128 83 L143 98 L128 113 L113 98 Z"/>
  <path d="M74 206 L99 168 L110 180 L128 132 L146 180 L157 168 L182 206"/>
  <path d="M74 234 L92 223 L110 234 L128 223 L146 234 L164 223 L182 234"/>
  <path d="M74 262 L92 251 L110 262 L128 251 L146 262 L164 251 L182 262"/>
</svg>
